HIERARCHY
ROOT SpineBase
{
  OFFSET 0.000000 0.000000 0.000000
  CHANNELS 6 Xposition Yposition Zposition Zrotation Xrotation Yrotation
  JOINT SpineMid
  {
    OFFSET 0.000000 28.391612 0.000000
    CHANNELS 3 Zrotation Xrotation Yrotation
    JOINT SpineShoulder
    {
      OFFSET 0.336725 21.173033 -0.574968
      CHANNELS 3 Zrotation Xrotation Yrotation
      JOINT Neck
      {
        OFFSET 0.202023 7.075199 -0.495899
        CHANNELS 3 Zrotation Xrotation Yrotation
        JOINT Head
        {
          OFFSET 1.029804 11.170876 4.039608
          CHANNELS 3 Zrotation Xrotation Yrotation
          End Site
          {
            OFFSET 0 0 0
          }
        }
      }
      JOINT ShoulderLeft
      {
        OFFSET -1.743652 -5.338713 -12.727764
        CHANNELS 3 Zrotation Xrotation Yrotation
        JOINT ElbowLeft
        {
          OFFSET -1.001466 -24.752838 -5.006924
          CHANNELS 3 Zrotation Xrotation Yrotation
          JOINT WristLeft
          {
            OFFSET 4.641646 -24.015356 0.371648
            CHANNELS 3 Zrotation Xrotation Yrotation
            JOINT HandLeft
            {
              OFFSET -0.726813 -4.193715 0.492631
              CHANNELS 3 Zrotation Xrotation Yrotation
              JOINT HandTipLeft
              {
                OFFSET 0.425631 -5.097321 -0.156403
                CHANNELS 3 Zrotation Xrotation Yrotation
                End Site
                {
                  OFFSET 0 0 0
                }
              }
              JOINT ThumbLeft
              {
                OFFSET -0.186880 0.213858 -4.195114
                CHANNELS 3 Zrotation Xrotation Yrotation
                End Site
                {
                  OFFSET 0 0 0
                }
              }
            }
          }
        }
      }
      JOINT ShoulderRight
      {
        OFFSET 6.505179 -2.044190 14.230639
        CHANNELS 3 Zrotation Xrotation Yrotation
        JOINT ElbowRight
        {
          OFFSET -5.279782 -17.825371 -19.122484
          CHANNELS 3 Zrotation Xrotation Yrotation
          JOINT WristRight
          {
            OFFSET -1.175591 -24.368556 -8.573304
            CHANNELS 3 Zrotation Xrotation Yrotation
            JOINT HandRight
            {
              OFFSET 0.055249 -15.601209 -2.319807
              CHANNELS 3 Zrotation Xrotation Yrotation
              JOINT HandTipRight
              {
                OFFSET 0.258017 -4.837773 1.128715
                CHANNELS 3 Zrotation Xrotation Yrotation
                End Site
                {
                  OFFSET 0 0 0
                }
              }
              JOINT ThumbRight
              {
                OFFSET 2.861081 -0.279485 0.442461
                CHANNELS 3 Zrotation Xrotation Yrotation
                End Site
                {
                  OFFSET 0 0 0
                }
              }
            }
          }
        }
      }
    }
  }
  JOINT HipLeft
  {
    OFFSET -1.416652 0.997833 -8.283689
    CHANNELS 3 Zrotation Xrotation Yrotation
    JOINT KneeLeft
    {
      OFFSET -4.515134 -27.558296 3.292508
      CHANNELS 3 Zrotation Xrotation Yrotation
      JOINT AnkleLeft
      {
        OFFSET -6.796636 -36.809953 5.081255
        CHANNELS 3 Zrotation Xrotation Yrotation
        JOINT FootLeft
        {
          OFFSET 6.649852 -4.416078 -3.313391
          CHANNELS 3 Zrotation Xrotation Yrotation
          End Site
          {
            OFFSET 0 0 0
          }
        }
      }
    }
  }
  JOINT HipRight
  {
    OFFSET 2.439083 0.481757 1.299648
    CHANNELS 3 Zrotation Xrotation Yrotation
    JOINT KneeRight
    {
      OFFSET -6.921743 -33.021345 -0.784293
      CHANNELS 3 Zrotation Xrotation Yrotation
      JOINT AnkleRight
      {
        OFFSET -9.102375 -31.294999 -2.159791
        CHANNELS 3 Zrotation Xrotation Yrotation
        JOINT FootRight
        {
          OFFSET 3.158645 -3.016750 7.189374
          CHANNELS 3 Zrotation Xrotation Yrotation
          End Site
          {
            OFFSET 0 0 0
          }
        }
      }
    }
  }
}
MOTION
Frames: 8
Frame Time: 0.033333
-54.322254 70.004205 350.141128 -0.000000 0.000000 -68.083226 -0.000000 0.000000 68.083226 -0.000000 0.000000 0.000000 -0.000000 0.000000 0.000000 0.000000 0.000000 0.000000 -0.000000 0.000000 0.000000 -0.000000 0.000000 0.000000 -0.000000 0.000000 0.000000 -0.000000 0.000000 0.000000 0.000000 0.000000 0.000000 0.000000 0.000000 0.000000 -0.000000 0.000000 0.000000 -0.000000 0.000000 0.000000 -0.000000 0.000000 0.000000 -0.000000 0.000000 0.000000 0.000000 0.000000 0.000000 0.000000 0.000000 0.000000 -0.000000 0.000000 68.083226 -0.000000 0.000000 0.000000 -0.000000 0.000000 0.000000 0.000000 0.000000 0.000000 -0.000000 0.000000 68.083226 -0.000000 0.000000 0.000000 -0.000000 0.000000 0.000000 0.000000 0.000000 0.000000
-54.426779 70.206659 349.590878 -0.324758 0.773387 -68.921577 0.838432 0.024895 68.923586 -0.000000 0.000000 0.000000 -0.359374 -0.893872 0.210090 0.000000 0.000000 0.000000 -0.000000 0.000000 0.000000 -0.000000 0.000000 0.000000 0.739871 -4.219411 0.843046 1.486437 2.188131 -1.146796 0.000000 0.000000 0.000000 0.000000 0.000000 0.000000 -0.000000 0.000000 0.000000 -0.000000 0.000000 0.000000 -0.479362 -0.910625 0.064321 -0.818949 2.249461 -0.268900 0.000000 0.000000 0.000000 0.000000 0.000000 0.000000 1.611331 -0.376709 69.056081 0.098779 0.865387 -0.130868 -3.421038 -3.236728 -2.574290 0.000000 0.000000 0.000000 -0.044114 0.031087 68.758452 1.209823 -2.286740 0.557855 -1.411714 1.837180 -1.237200 0.000000 0.000000 0.000000
-54.486385 70.376727 349.185765 -0.561126 1.316921 -69.560138 1.429944 0.065950 69.565764 0.150003 0.901819 -0.016427 -0.779309 -2.526509 0.374388 0.000000 0.000000 0.000000 -0.149763 -0.901859 0.014068 -0.470828 0.884406 0.167440 1.832028 -8.112888 1.354797 2.425998 3.655521 -2.082510 0.000000 0.000000 0.000000 0.000000 0.000000 0.000000 0.300463 -0.288208 -0.643102 -0.443281 -0.618675 0.659453 -0.812675 -1.635162 0.103676 -1.633388 3.990134 -0.455440 0.000000 0.000000 0.000000 0.000000 0.000000 0.000000 2.767402 -0.629912 69.794967 -0.015991 2.649484 -0.459991 -7.280668 -7.607212 -5.118341 0.000000 0.000000 0.000000 -0.144807 -0.027708 69.279369 2.344982 -3.942409 0.993132 -2.599117 3.141797 -2.194539 0.000000 0.000000 0.000000
-54.501072 70.514409 348.925789 -0.707988 1.627951 -70.002738 0.860753 0.412328 69.999279 0.234614 0.158513 0.000328 -1.019157 -3.306588 0.481891 0.000000 0.000000 0.000000 -0.203197 -1.998571 0.050112 -0.583873 2.056907 0.198897 2.452342 -10.317938 1.772866 2.887355 4.486348 -2.724940 0.000000 0.000000 0.000000 0.000000 0.000000 0.000000 0.375701 -0.282813 -0.846300 -0.571534 -0.844258 0.864526 -1.004918 -2.179449 0.122946 -2.396379 5.162168 -0.583229 0.000000 0.000000 0.000000 0.000000 0.000000 0.000000 3.466251 -0.791451 70.299989 -0.102703 3.567496 -0.626958 -11.791399 -11.172831 -7.862759 0.000000 0.000000 0.000000 -0.316356 -0.177204 69.643095 3.384765 -4.966864 1.277984 -3.561168 3.881950 -2.893742 0.000000 0.000000 0.000000
-54.470840 70.619705 348.810950 -0.764529 1.704657 -70.253453 0.842848 0.495886 70.250670 0.268749 0.097138 0.004173 -1.158741 -3.757058 0.542637 0.000000 0.000000 0.000000 -0.250542 -2.220531 0.054546 -0.605065 2.410271 0.231685 2.863173 -11.423184 2.006458 2.918376 4.745604 -3.045364 0.000000 0.000000 0.000000 0.000000 0.000000 0.000000 0.400189 -0.173802 -0.972180 -0.289070 -0.100747 0.818908 -1.416173 -3.459108 0.277806 -3.064282 5.720647 -0.674608 0.000000 0.000000 0.000000 0.000000 0.000000 0.000000 3.707692 -0.882356 70.573945 -0.247773 4.224430 -0.753295 -16.747998 -14.414434 -10.654920 0.000000 0.000000 0.000000 -0.569387 -0.418901 69.849851 4.315218 -5.365060 1.390487 -4.294581 4.040208 -3.352312 0.000000 0.000000 0.000000
-54.395689 70.692615 348.841248 -0.730234 1.545872 -70.316161 0.673639 0.546379 70.312810 0.280395 -0.022862 0.009669 -1.197641 -3.874362 0.558746 0.000000 0.000000 0.000000 -0.287418 -2.218352 0.053234 -0.535496 2.594134 0.243694 3.063093 -11.490020 2.051666 2.551236 4.466714 -3.046773 0.000000 0.000000 0.000000 0.000000 0.000000 0.000000 0.373622 0.040610 -1.020978 -0.327907 -0.039048 0.861286 -1.308583 -3.831817 0.261777 -3.601700 5.640083 -0.746346 0.000000 0.000000 0.000000 0.000000 0.000000 0.000000 3.492418 -0.913059 70.620842 -0.455599 4.624814 -0.841095 -21.979053 -17.237210 -13.394137 0.000000 0.000000 0.000000 -0.911368 -0.754573 69.902414 5.130849 -5.145840 1.315995 -4.794460 3.612225 -3.582287 0.000000 0.000000 0.000000
-54.273239 70.711599 349.093979 -0.602765 1.027365 -69.930887 0.168046 0.612288 69.924985 0.266469 -0.280639 0.017563 -1.063133 -3.815979 0.529100 0.000000 0.000000 0.000000 0.083018 -2.189280 -0.010660 -0.984270 2.773824 0.305555 3.526576 -10.544778 1.979556 0.515116 3.534687 -2.633356 0.000000 0.000000 0.000000 0.000000 0.000000 0.000000 0.272944 0.416908 -0.959643 -0.371454 0.132230 0.822090 -0.471215 -4.317781 0.150659 -0.984434 5.226369 -0.123076 0.000000 0.000000 0.000000 0.000000 0.000000 0.000000 2.690214 -0.755338 70.182359 -0.906304 4.682659 -0.895519 -37.172638 -22.515075 -21.942493 0.000000 0.000000 0.000000 -1.377304 -1.251224 69.569484 5.820275 -3.695043 0.847383 -5.068817 2.148868 -3.625456 0.000000 0.000000 0.000000
-54.118039 70.703821 349.411054 -0.412037 0.397027 -69.651078 -0.307593 0.617207 69.644911 -0.059550 -0.900033 0.012226 -0.488759 -2.870444 0.432922 0.000000 0.000000 0.000000 0.551335 -1.292403 -0.053145 -1.139590 2.229955 0.256233 2.223880 -7.804488 1.335766 1.026575 0.969490 -2.032901 0.000000 0.000000 0.000000 0.000000 0.000000 0.000000 0.412121 1.220101 -0.799607 -0.387189 0.316896 0.706751 0.021370 -4.306014 0.069988 -2.709089 2.342988 -0.507471 0.000000 0.000000 0.000000 0.000000 0.000000 0.000000 1.642246 -0.769635 69.820002 -1.165832 4.869107 -0.955117 -42.715481 -24.060369 -24.482096 0.000000 0.000000 0.000000 -1.882720 -1.851260 69.367560 6.476013 -1.660958 0.185328 -5.573251 1.029277 -3.532482 0.000000 0.000000 0.000000
